<?xml version="1.0" standalone="no"?>
<!DOCTYPE svg PUBLIC "-//W3C//DTD SVG 20010904//EN"
 "http://www.w3.org/TR/2001/REC-SVG-20010904/DTD/svg10.dtd">
<svg version="1.0" xmlns="http://www.w3.org/2000/svg"
 width="469.000000pt" height="726.000000pt" viewBox="0 0 469.000000 726.000000"
 preserveAspectRatio="xMidYMid meet">
<metadata>
Created by potrace 1.11, written by Peter Selinger 2001-2013
</metadata>
<g transform="translate(0.000000,726.000000) scale(0.100000,-0.100000)"
fill="#000000" stroke="none">
<path d="M4209 6888 c-137 -290 -535 -1075 -645 -1273 -175 -316 -298 -495
-340 -495 -6 0 -19 11 -28 25 -103 157 -1056 230 -1388 105 -67 -25 -103 -51
-123 -91 -23 -44 -51 -37 -116 30 -106 109 -276 355 -528 765 -120 194 -449
754 -547 930 l-49 89 -3 -39 c-4 -49 21 -374 53 -689 109 -1058 114 -1114 122
-1435 8 -331 -10 -514 -69 -704 -19 -59 -22 -94 -22 -201 1 -71 9 -175 18
-230 58 -346 243 -898 481 -1436 70 -156 117 -236 527 -893 247 -396 464 -741
481 -766 108 -156 239 -261 372 -296 67 -18 227 -18 300 1 118 30 256 119 390
252 89 88 314 491 586 1050 106 218 135 288 173 415 219 752 366 1420 397
1815 12 150 8 220 -22 408 -16 97 -22 1073 -10 1455 11 347 36 921 50 1190 4
80 7 146 6 148 -2 2 -31 -57 -66 -130z m-2479 -2388 c132 -67 254 -297 309
-582 97 -502 4 -1088 -210 -1331 -120 -137 -266 -143 -389 -17 -116 119 -205
350 -245 632 -16 115 -22 431 -10 525 44 338 120 557 241 692 47 52 95 87 142
102 40 13 115 3 162 -21z m1725 -714 c96 -44 149 -135 149 -256 0 -161 -102
-279 -242 -280 -89 0 -167 55 -214 149 -34 69 -32 186 3 262 60 127 188 180
304 125z m-729 -2807 c131 -40 234 -135 270 -248 32 -102 -2 -216 -90 -300
-94 -88 -209 -131 -351 -131 -292 0 -506 209 -441 432 61 211 351 327 612 247z"/>
<path d="M1529 3787 c-214 -80 -223 -425 -13 -513 99 -41 220 12 276 121 29
55 36 167 14 232 -41 124 -172 199 -277 160z"/>
<path d="M3268 3613 c-54 -62 -5 -161 65 -134 68 26 49 151 -23 151 -15 0 -34
-8 -42 -17z"/>
</g>
</svg>
